<svg xmlns="http://www.w3.org/2000/svg" viewBox="0 0 24 24" width="24" height="24">
  <defs>
    <linearGradient id="pickleGradient" x1="0%" y1="0%" x2="100%" y2="100%">
      <stop offset="0%" style="stop-color:#4ade80;stop-opacity:1" />
      <stop offset="100%" style="stop-color:#16a34a;stop-opacity:1" />
    </linearGradient>
  </defs>

  <!-- Pickle body -->
  <path d="M8 4 C6 4, 5 5, 5 7 L5 17 C5 19, 6 20, 8 20 L16 20 C18 20, 19 19, 19 17 L19 7 C19 5, 18 4, 16 4 L8 4 Z"
        fill="url(#pickleGradient)"
        stroke="#15803d"
        stroke-width="0.5"/>

  <!-- Pickle bumps/texture -->
  <circle cx="9" cy="8" r="0.8" fill="#22c55e" opacity="0.6"/>
  <circle cx="15" cy="9" r="0.7" fill="#22c55e" opacity="0.6"/>
  <circle cx="11" cy="11" r="0.6" fill="#22c55e" opacity="0.6"/>
  <circle cx="13" cy="14" r="0.8" fill="#22c55e" opacity="0.6"/>
  <circle cx="8" cy="15" r="0.5" fill="#22c55e" opacity="0.6"/>
  <circle cx="16" cy="12" r="0.6" fill="#22c55e" opacity="0.6"/>

  <!-- Highlight -->
  <ellipse cx="10" cy="6" rx="1.5" ry="0.8" fill="#86efac" opacity="0.4"/>
</svg>
